<svg xmlns="http://www.w3.org/2000/svg" viewBox="0 0 640 400" role="img" aria-label="NLP review analysis">
  <defs>
    <linearGradient id="g" x1="0" y1="0" x2="0" y2="1">
      <stop offset="0" stop-color="#0f1726"/><stop offset="1" stop-color="#0a0e16"/>
    </linearGradient>
    <radialGradient id="glow" cx="30%" cy="18%" r="60%">
      <stop offset="0" stop-color="#38e1ff" stop-opacity="0.18"/><stop offset="1" stop-color="#38e1ff" stop-opacity="0"/>
    </radialGradient>
  </defs>
  <rect width="640" height="400" fill="url(#g)"/>
  <g stroke="#7d9ec0" stroke-opacity="0.07">
    <path d="M0 50H640M0 100H640M0 150H640M0 200H640M0 250H640M0 300H640M0 350H640"/>
    <path d="M53 0V400M107 0V400M160 0V400M213 0V400M267 0V400M320 0V400M373 0V400M427 0V400M480 0V400M533 0V400M587 0V400"/>
  </g>
  <rect width="640" height="400" fill="url(#glow)"/>
  <text x="34" y="52" font-family="monospace" font-size="15" letter-spacing="2" fill="#38e1ff">SENTIMENT · 140 TOPICS</text>
  <text x="34" y="78" font-family="monospace" font-size="12" fill="#7c8aa3">212,000+ reviews · DistilBERT + BERTopic</text>
  <!-- topic cluster scatter -->
  <g>
    <circle cx="430" cy="150" r="46" fill="#38e1ff" fill-opacity="0.10" stroke="#38e1ff" stroke-opacity="0.5"/>
    <circle cx="500" cy="120" r="30" fill="#ffb22e" fill-opacity="0.10" stroke="#ffb22e" stroke-opacity="0.55"/>
    <circle cx="520" cy="210" r="38" fill="#38e1ff" fill-opacity="0.08" stroke="#38e1ff" stroke-opacity="0.4"/>
    <circle cx="445" cy="235" r="22" fill="#ffb22e" fill-opacity="0.10" stroke="#ffb22e" stroke-opacity="0.5"/>
    <g fill="#38e1ff">
      <circle cx="430" cy="150" r="3"/><circle cx="446" cy="138" r="2.4"/><circle cx="418" cy="162" r="2.4"/><circle cx="440" cy="166" r="2"/><circle cx="415" cy="142" r="2"/>
      <circle cx="520" cy="210" r="3"/><circle cx="534" cy="200" r="2.2"/><circle cx="508" cy="222" r="2.2"/><circle cx="528" cy="224" r="1.8"/>
    </g>
    <g fill="#ffb22e">
      <circle cx="500" cy="120" r="3"/><circle cx="512" cy="112" r="2.2"/><circle cx="490" cy="130" r="2.2"/>
      <circle cx="445" cy="235" r="2.6"/><circle cx="455" cy="228" r="2"/><circle cx="437" cy="243" r="1.8"/>
    </g>
  </g>
  <!-- sentiment bars -->
  <g>
    <text x="34" y="150" font-family="monospace" font-size="11" fill="#7c8aa3">POSITIVE</text>
    <rect x="34" y="160" width="250" height="14" rx="3" fill="#38e1ff" fill-opacity="0.85"/>
    <text x="34" y="206" font-family="monospace" font-size="11" fill="#7c8aa3">NEUTRAL</text>
    <rect x="34" y="216" width="150" height="14" rx="3" fill="#9aa7bd" fill-opacity="0.7"/>
    <text x="34" y="262" font-family="monospace" font-size="11" fill="#7c8aa3">NEGATIVE</text>
    <rect x="34" y="272" width="110" height="14" rx="3" fill="#ffb22e" fill-opacity="0.85"/>
  </g>
  <text x="34" y="360" font-family="monospace" font-size="12" fill="#38e1ff">&lt;/&gt; Python · UMAP · HDBSCAN</text>
</svg>
